<?xml version="1.0" encoding="UTF-8" standalone="no"?>
<!DOCTYPE svg PUBLIC "-//W3C//DTD SVG 1.1//EN" "http://www.w3.org/Graphics/SVG/1.1/DTD/svg11.dtd">
<svg width="100%" height="100%" viewBox="0 0 30 30" version="1.1" xmlns="http://www.w3.org/2000/svg" xmlns:xlink="http://www.w3.org/1999/xlink" xml:space="preserve" xmlns:serif="http://www.serif.com/" style="fill-rule:evenodd;clip-rule:evenodd;stroke-linejoin:round;stroke-miterlimit:2;">
    <g transform="matrix(1,0,0,1,-154.037,-155.149)">
        <g transform="matrix(0.906538,0,0,0.906538,94.654,90.1068)">
            <rect x="65.505" y="71.748" width="32.777" height="32.777" style="fill:rgb(77,77,77);"/>
        </g>
        <g transform="matrix(0.781262,0,0,0.781262,104.913,101.148)">
            <rect x="65.505" y="71.748" width="32.777" height="32.777" style="fill:rgb(244,225,225);"/>
        </g>
        <g transform="matrix(1,0,0,1,87,81.8694)">
            <path d="M69.09,100.941L73.904,96.127L89.884,96.127L94.698,100.941L69.09,100.941Z" style="fill:rgb(220,164,164);"/>
        </g>
        <g transform="matrix(1,0,0,1,87,81.8694)">
            <path d="M94.698,75.333L89.884,80.147L89.884,96.127L94.698,100.941" style="fill:rgb(229,186,186);"/>
        </g>
        <g transform="matrix(1,0,0,1,87,81.8694)">
            <path d="M69.09,75.333L73.904,80.147L89.884,80.147L94.698,75.333" style="fill:rgb(235,198,198);"/>
        </g>
        <g transform="matrix(1,0,0,1,87,81.8694)">
            <path d="M69.09,100.941L73.904,96.127L73.904,80.147L69.09,75.333" style="fill:rgb(235,198,198);"/>
        </g>
        <g transform="matrix(1,0,0,1,42.3867,83.6103)">
            <g transform="matrix(17.7875,0,0,17.7875,120.904,92.8885)">
                <path d="M0.3,0.01C0.233,0.01 0.179,-0.01 0.14,-0.049C0.1,-0.088 0.08,-0.14 0.08,-0.205L0.08,-0.525C0.08,-0.59 0.1,-0.643 0.14,-0.682C0.179,-0.721 0.233,-0.74 0.3,-0.74C0.367,-0.74 0.421,-0.721 0.461,-0.682C0.5,-0.643 0.52,-0.59 0.52,-0.525L0.52,-0.205C0.52,-0.162 0.511,-0.124 0.493,-0.092C0.475,-0.059 0.45,-0.034 0.417,-0.017C0.384,0.001 0.345,0.01 0.3,0.01ZM0.3,-0.067C0.34,-0.067 0.372,-0.08 0.397,-0.106C0.421,-0.131 0.433,-0.164 0.433,-0.205L0.433,-0.525C0.433,-0.566 0.421,-0.599 0.397,-0.625C0.372,-0.65 0.34,-0.663 0.3,-0.663C0.26,-0.663 0.228,-0.65 0.204,-0.625C0.179,-0.599 0.167,-0.566 0.167,-0.525L0.167,-0.205C0.167,-0.164 0.179,-0.131 0.204,-0.106C0.228,-0.08 0.26,-0.067 0.3,-0.067ZM0.3,-0.31C0.282,-0.31 0.268,-0.315 0.257,-0.325C0.245,-0.335 0.24,-0.349 0.24,-0.368C0.24,-0.386 0.245,-0.4 0.257,-0.41C0.268,-0.419 0.282,-0.424 0.3,-0.424C0.318,-0.424 0.333,-0.419 0.344,-0.41C0.355,-0.4 0.36,-0.386 0.36,-0.368C0.36,-0.349 0.355,-0.335 0.344,-0.325C0.333,-0.315 0.318,-0.31 0.3,-0.31Z" style="fill-rule:nonzero;"/>
            </g>
        </g>
    </g>
</svg>
