<?xml version="1.0" encoding="UTF-8" standalone="no"?>
<!DOCTYPE svg PUBLIC "-//W3C//DTD SVG 1.1//EN" "http://www.w3.org/Graphics/SVG/1.1/DTD/svg11.dtd">
<svg width="100%" height="100%" viewBox="0 0 30 30" version="1.1" xmlns="http://www.w3.org/2000/svg" xmlns:xlink="http://www.w3.org/1999/xlink" xml:space="preserve" xmlns:serif="http://www.serif.com/" style="fill-rule:evenodd;clip-rule:evenodd;stroke-linejoin:round;stroke-miterlimit:2;">
    <g transform="matrix(1,0,0,1,-114.037,-155.149)">
        <g transform="matrix(0.906538,0,0,0.906538,54.654,90.1068)">
            <rect x="65.505" y="71.748" width="32.777" height="32.777" style="fill:rgb(77,77,77);"/>
        </g>
        <g transform="matrix(0.781262,0,0,0.781262,64.9134,101.148)">
            <rect x="65.505" y="71.748" width="32.777" height="32.777" style="fill:rgb(191,231,241);"/>
        </g>
        <g transform="matrix(1,0,0,1,47,81.8694)">
            <path d="M69.09,100.941L73.904,96.127L89.884,96.127L94.698,100.941L69.09,100.941Z" style="fill:rgb(36,140,172);"/>
        </g>
        <g transform="matrix(1,0,0,1,47,81.8694)">
            <path d="M94.698,75.333L89.884,80.147L89.884,96.127L94.698,100.941" style="fill:rgb(41,158,193);"/>
        </g>
        <g transform="matrix(1,0,0,1,47,81.8694)">
            <path d="M69.09,75.333L73.904,80.147L89.884,80.147L94.698,75.333" style="fill:rgb(105,196,223);"/>
        </g>
        <g transform="matrix(1,0,0,1,47,81.8694)">
            <path d="M69.09,100.941L73.904,96.127L73.904,80.147L69.09,75.333" style="fill:rgb(105,196,223);"/>
        </g>
        <g transform="matrix(1,0,0,1,2.38671,83.6103)">
            <g transform="matrix(17.7875,0,0,17.7875,120.904,92.8885)">
                <path d="M0.09,-0L0.09,-0.082L0.288,-0.082L0.288,-0.652L0.09,-0.504L0.09,-0.607L0.255,-0.73L0.378,-0.73L0.378,-0.082L0.54,-0.082L0.54,-0L0.09,-0Z" style="fill-rule:nonzero;"/>
            </g>
        </g>
    </g>
</svg>
